<svg width="48" height="48" xmlns="http://www.w3.org/2000/svg">

 <g>
  <title>background</title>
  <rect fill="none" id="canvas_background" height="402" width="582" y="-1" x="-1"/>
 </g>
 <g>
  <title>Layer 1</title>
  <path id="svg_2" fill="#393e46" d="m32.605999,20.271999l0,0c-2.120998,1.201 -4.903,2.513 -8.199999,3.487001c-0.681999,0.172998 -1.152,0.082998 -1.377001,0.007999c-3.320999,-1.388 -5.635,-2.497 -7.683,-3.667c-0.014,-0.007 -0.021999,-0.01 -0.037,-0.018c-1.267,-0.699001 -1.28,0 -1.28,0l0,8.098c0,1.105 0.896,2 1.999999,2l15.341002,0c1.103998,0 1.999998,-0.895 1.999998,-2l0,-7.908001c0,-0.462 -0.764,0 -0.764,0z"/>
  <path id="svg_3" fill="#393e46" d="m24,0c-13.255,0 -24,10.745 -24,24c0,13.254002 10.745,24 24,24s24,-10.745998 24,-24c0,-13.255 -10.744999,-24 -24,-24zm13.209999,31.424c0,1.104 -0.896,2 -2,2l-22.419999,0c-1.104,0 -2,-0.896 -2,-2l0,-14.848c0,-1.104 0.896,-2 2,-2l22.419999,0c1.104,0 2,0.896 2,2l0,14.848z"/>
 </g>
</svg>