<svg width="512" height="512" xmlns="http://www.w3.org/2000/svg" clip-rule="evenodd">

 <g>
  <title>background</title>
  <rect fill="none" id="canvas_background" height="402" width="582" y="-1" x="-1"/>
 </g>
 <g>
  <title>Layer 1</title>
  <path fill="#393e46" id="svg_1" d="m256,0c141.289978,0 256,114.709999 256,256c0,141.289978 -114.709991,256 -256,256c-141.289993,0 -256,-114.709991 -256,-256c0,-141.289993 114.709999,-256 256,-256zm121.527008,134.843994c-30.645996,-30.672005 -71.401001,-47.571007 -114.822021,-47.588005c-89.467987,0 -162.283974,72.788002 -162.318985,162.256004c-0.012001,28.598999 7.461998,56.515991 21.666,81.122009l-23.028,84.085999l86.048004,-22.564026c23.707993,12.927002 50.401001,19.739014 77.568008,19.751007l0.066986,0c89.458984,0 162.281006,-72.796997 162.316986,-162.266006c0.016998,-43.358002 -16.850983,-84.126999 -47.496979,-114.796982zm-114.821014,249.656982l-0.053986,0c-24.209015,-0.009979 -47.953003,-6.510986 -68.667007,-18.798981l-4.927002,-2.924011l-51.061005,13.390991l13.629013,-49.768982l-3.208008,-5.10199c-13.505005,-21.473022 -20.637001,-46.292999 -20.626999,-71.776016c0.029999,-74.362 60.552002,-134.860985 134.968979,-134.860985c36.035004,0.014 69.90802,14.062004 95.380005,39.553993c25.472015,25.492996 39.492004,59.378998 39.477997,95.416c-0.029999,74.366989 -60.550995,134.869003 -134.911987,134.86998zm74.003021,-101.009979c-4.056,-2.029022 -23.996002,-11.838013 -27.715027,-13.19101c-3.71698,-1.352997 -6.419983,-2.029999 -9.123993,2.028992c-2.70401,4.059021 -10.47699,13.192017 -12.842987,15.89801c-2.365021,2.704987 -4.731018,3.045013 -8.787018,1.014008c-4.056,-2.028015 -17.123993,-6.309998 -32.61499,-20.123993c-12.057007,-10.75 -20.197006,-24.029007 -22.563004,-28.087021c-2.36499,-4.05899 -0.251999,-6.252991 1.779007,-8.274994c1.82399,-1.815994 4.054993,-4.735001 6.082993,-7.102997c2.028,-2.367996 2.70401,-4.059006 4.056,-6.764008c1.352005,-2.707001 0.67601,-5.07399 -0.337997,-7.103989c-1.013992,-2.029007 -9.125,-21.986008 -12.505005,-30.104004c-3.291,-7.906006 -6.634995,-6.835999 -9.125,-6.960007c-2.362991,-0.117996 -5.069,-0.14299 -7.772995,-0.14299c-2.703995,0 -7.097,1.014999 -10.815994,5.07399c-3.71701,4.059006 -14.194,13.868011 -14.194,33.824005c0,19.957001 14.53299,39.235992 16.560989,41.942993c2.028,2.706009 28.599014,43.659012 69.284012,61.220993c9.675995,4.177002 17.230988,6.672028 23.121002,8.541016c9.716003,3.084991 18.557007,2.649994 25.54599,1.605988c7.791992,-1.164001 23.996002,-9.80899 27.375,-19.278992c3.378998,-9.471008 3.378998,-17.588989 2.365997,-19.279999c-1.014008,-1.69101 -3.717987,-2.705994 -7.77298,-4.735992z"/>
 </g>
</svg>