<svg width="128" height="128" xmlns="http://www.w3.org/2000/svg">

 <g>
  <title>background</title>
  <rect fill="none" id="canvas_background" height="402" width="582" y="-1" x="-1"/>
 </g>
 <g>
  <title>Layer 1</title>
  <ellipse ry="63.929027" rx="63.929027" id="svg_3" cy="63.999998" cx="64.038197" fill="#393e46"/>
  <path id="svg_2" fill="#000000" stroke="#000000" stroke-miterlimit="10" d="m81.434563,100.596695c-6.439201,3.394974 -13.001869,4.688629 -20.85191,4.688629c-19.210648,0 -35.493458,-14.060387 -35.493458,-36.551979c0,-24.132851 16.749947,-44.983967 42.762329,-44.983967c20.382408,0 34.089699,14.293167 34.089699,33.856926c0,17.570179 -9.843605,27.876995 -20.851112,27.876995c-4.693352,0 -9.024162,-3.162201 -8.670273,-10.306038l-0.467133,0c-4.100395,6.910271 -9.490509,10.306038 -16.520309,10.306038c-6.791519,0 -12.64798,-5.504944 -12.64798,-14.756378c0,-14.527527 11.47464,-27.76767 27.757446,-27.76767c5.035446,0 9.489723,1.053799 12.533173,2.461491l-3.977715,21.204212c-1.75528,8.904625 -0.353889,13.001083 3.509796,13.121407c5.979927,0.114822 12.65741,-7.850029 12.65741,-21.438576c0,-16.988232 -10.195137,-29.168285 -28.358276,-29.168285c-19.086395,0 -35.140354,15.108681 -35.140354,38.893154c0,19.563744 12.772232,31.625839 30.104122,31.625839c6.67749,0 12.887054,-1.402184 17.693649,-4.097244l1.870895,5.035446zm-6.438423,-50.606865c-1.174118,-0.353107 -3.166901,-0.820236 -5.855667,-0.820236c-10.311535,0 -18.62949,9.724857 -18.62949,21.085472c0,5.155769 2.575523,8.903839 7.735218,8.903839c6.792297,0 13.001091,-8.670273 14.288452,-15.929707l2.461487,-13.239368z"/>
 </g>
</svg>