<svg width="67" height="67" xmlns="http://www.w3.org/2000/svg">

 <g>
  <title>background</title>
  <rect fill="none" id="canvas_background" height="402" width="582" y="-1" x="-1"/>
 </g>
 <g>
  <title>Layer 1</title>
  <path id="svg_1" fill-rule="evenodd" clip-rule="evenodd" fill="#393e46" d="m35.543957,47.303764c-5.377823,0.285629 -7.893797,-0.928288 -10.200014,-3.13409c-2.575108,-2.464649 -1.540825,-5.275177 0.556751,-5.416874c2.096458,-0.142815 3.355003,2.422253 4.474083,3.137436c1.11796,0.711838 5.368895,2.331879 7.61598,-0.287857c2.444565,-2.849579 -1.62674,-4.32346 -4.612434,-4.77087c-4.260977,-0.642662 -9.642149,-2.993504 -9.223749,-7.627134c0.4184,-4.629169 3.857084,-7.003445 7.475401,-7.338165c4.612431,-0.427326 7.614864,0.711836 9.990253,2.779287c2.745815,2.387663 1.259663,5.056494 -0.488689,5.27183c-1.742775,0.213104 -3.699764,-3.927374 -7.543457,-3.989855c-3.961962,-0.063599 -6.638601,4.204075 -1.74835,5.41576c4.892477,1.211681 10.131956,1.709297 12.018652,6.269291c1.887821,4.561111 -2.933258,9.404499 -8.314426,9.691242zm15.163902,-10.849373c0.101532,-0.758694 0.15955,-1.530781 0.15955,-2.315136c0,-9.42347 -7.569118,-17.063995 -16.905556,-17.063995c-0.928291,0 -1.837608,0.0781 -2.723501,0.225376c-1.587685,-1.049902 -3.477734,-1.661324 -5.510597,-1.661324c-5.574194,0 -10.088442,4.582308 -10.088442,10.236834c0,2.057407 0.596916,3.968657 1.624504,5.573076c-0.13835,0.876968 -0.209757,1.775131 -0.209757,2.688915c0,9.42458 7.565773,17.063992 16.904444,17.063992c1.054363,0 2.080837,-0.103767 3.0783,-0.286743c1.549751,0.975151 3.376202,1.543056 5.333195,1.543056c5.573078,0 10.088444,-4.582306 10.088444,-10.236835c0,-2.137741 -0.643776,-4.124859 -1.750584,-5.767216zm-17.216846,30.508553c-18.485436,0 -33.471938,-14.986496 -33.471938,-33.471931c0,-18.486551 14.986501,-33.471938 33.471938,-33.471938s33.471931,14.985386 33.471931,33.471938c0,18.485435 -14.986496,33.471931 -33.471931,33.471931z"/>
 </g>
</svg>