<svg width="512" height="512" xmlns="http://www.w3.org/2000/svg" clip-rule="evenodd">

 <g>
  <title>background</title>
  <rect fill="none" id="canvas_background" height="402" width="582" y="-1" x="-1"/>
 </g>
 <g>
  <title>Layer 1</title>
  <path fill="#393e46" id="svg_1" d="m256,0c141.289978,0 256,114.709999 256,256c0,141.289978 -114.709991,256 -256,256c-141.289993,0 -256,-114.709991 -256,-256c0,-141.289993 114.709999,-256 256,-256zm-80.037003,399.871002l0,-199.921005l-66.463997,0l0,199.921005l66.463997,0zm239.61998,0l0,-114.645996c0,-61.409012 -32.786987,-89.976013 -76.508972,-89.976013c-35.255005,0 -51.047028,19.389008 -59.889008,33.007004l0,-28.306l-66.447006,0c0.880997,18.757004 0,199.921005 0,199.921005l66.445999,0l0,-111.649994c0,-5.976013 0.429993,-11.950012 2.19101,-16.221008c4.794983,-11.934998 15.737,-24.298996 34.095001,-24.298996c24.033997,0 33.662994,18.339981 33.662994,45.203995l0,106.966003l66.449982,0zm-272.403,-296.321014c-22.739998,0 -37.597,14.950005 -37.597,34.544998c0,19.182007 14.405006,34.543991 36.716995,34.543991l0.429001,0c23.175003,0 37.599991,-15.362 37.599991,-34.543991c-0.429993,-19.594994 -14.423981,-34.544998 -37.148987,-34.544998z"/>
 </g>
</svg>