<svg xmlns="http://www.w3.org/2000/svg" viewBox="0 0 986.21 986.21"><defs><style>.cls-1{fill:#fff;}.cls-2{fill:#00adb5;}.cls-3{fill:#393e46;}.cls-4{fill:#eee;}</style></defs><title>logo-dark</title><g id="Round_Icon" data-name="Round Icon"><circle cx="493.11" cy="493.11" r="493.11"/></g><g id="The_TA" data-name="The TA"><path class="cls-1" d="M436.61,369.36" transform="translate(-7.79 -9)"/><path class="cls-2" d="M348.73,210.44c-.84,14.16-3,43.55-13.52,67.33-13.09,29.71-21.18,41.08-32.68,51.35H272.35a22.22,22.22,0,0,0,0,43.93h29.16V606.29c.58,9.41,4.63,59.62,47.49,96.67,36.72,31.74,78.32,33.42,89.66,33.51V694.58c-7.72-.41-40-3-66.52-29.57-28.54-28.58-29.52-64-29.57-71V470.79c.64-8.52-2.08-48.89,25.83-76.34,25.31-24.9,61.13-22.43,70.26-23.45V329.12h-61.6a149.93,149.93,0,0,0-12.31-121.55,8.38,8.38,0,0,0-16,2.87Z" transform="translate(-7.79 -9)"/><path class="cls-3" d="M667,667.48q-.4,24.63-.82,49.27a23.89,23.89,0,0,0,7.8,14.38c8.06,7,17.88,5.56,19.3,5.34A19.68,19.68,0,0,0,712.55,718c0-73.1,4-146.3,0-219.28-1.37-25.23-6.64-80.29-62.41-124A230.87,230.87,0,0,0,608.56,349a198.82,198.82,0,0,0-31.18-12.5,183.11,183.11,0,0,0-20-4.79,172.24,172.24,0,0,0-26.16-2.58H468.23v42.7c6.07.06,15.22.13,26.37.16,18.35,0,21.86-.09,27.38.06a209.79,209.79,0,0,1,42.7,5.56c32.43,8.18,55.74,30.13,66.23,41.75,27.27,30.22,33.54,63.36,36.47,79.77,2.73,15.24,11.83,69.81-21.76,122.37-4.23,6.62-25.61,44.5-73.09,61.59-45.74,16.47-88,10.65-104.3,11.5v41.89c20.43.5,46.91,1.47,76.78-2.06,13.7-2.47,35.44-6.55,60.78-19.3A202.2,202.2,0,0,0,667,667.48Z" transform="translate(-7.79 -9)"/><path class="cls-1" d="M468.23,694.58" transform="translate(-7.79 -9)"/><path class="cls-1" d="M272.35,329.12" transform="translate(-7.79 -9)"/><path class="cls-1" d="M240.87,351" transform="translate(-7.79 -9)"/></g><g id="The_Signature" data-name="The Signature"><path class="cls-4" d="M433.45,437.63c.91-.19,1.83-.39,2.74-.61a24.42,24.42,0,0,1,2.66-.47q8.92-1,17.72-1.87t17.78-1.8c.62-.05,1.2-.11,1.73-.18a5.67,5.67,0,0,0,1.51-.43,5,5,0,0,0,1.37-.94,10.87,10.87,0,0,0,1.44-1.76,4.55,4.55,0,0,0,.54-1.59c.07-.52.14-1,.21-1.51a5.14,5.14,0,0,1,.4-1.33,2.45,2.45,0,0,1,.94-1,3.38,3.38,0,0,1,1.94-.79,2.32,2.32,0,0,1,1.44.43,2.15,2.15,0,0,1,.79,1.22,3.12,3.12,0,0,1,.07,1.51q-1.44,3.6-.57,4.76c.57.76,2,1,4.25.79q14.32-.51,28.22-.4T546,433c1.2.1,2.56.23,4.07.4a27.5,27.5,0,0,0,4.64.11,1.47,1.47,0,0,1,1.51,1,2.93,2.93,0,0,1-.21,2.09,4.7,4.7,0,0,1-1.77,1.94,4.25,4.25,0,0,1-3.13.54,87,87,0,0,0-13.5-2.77q-7.46-1-15.62-1.37t-16.67-.39q-8.49,0-16.63.14c-1.54.05-2.74.12-3.6.22a5,5,0,0,0-2.23.75,5.75,5.75,0,0,0-1.7,1.84c-.5.82-1.14,2-1.9,3.45q-6.92,13.33-13.65,26.43t-12.49,26.42a86.17,86.17,0,0,1-4,8.17q-2.23,4.08-4.32,8.18t-4.18,8.17q-2.08,4.07-4,8.17c-.57,1.15-1.09,2.14-1.55,2.95a15.8,15.8,0,0,1-1.36,2.09,9.67,9.67,0,0,1-1.44,1.48,9.15,9.15,0,0,1-1.84,1.11,1.36,1.36,0,0,1-1.4,0,2.06,2.06,0,0,1-.65-1.12,3.78,3.78,0,0,1,0-1.58,5.24,5.24,0,0,1,.43-1.44q2.75-5.27,5.76-10.55t6.09-10.55q3.06-5.25,6.05-10.51t5.58-10.58a53.43,53.43,0,0,0,2.73-6.88q1.08-3.42,2.31-6.88a11.43,11.43,0,0,0,.46-1.44,5.52,5.52,0,0,1,.54-1.36A20.94,20.94,0,0,0,460.13,453a18.25,18.25,0,0,0-4.79-7.09,17.09,17.09,0,0,0-7.63-4.07,49.06,49.06,0,0,0-5.94-.94l-6.23-.57a10.19,10.19,0,0,1-1.15-.11c-.53-.07-1.07-.17-1.62-.29a13.57,13.57,0,0,1-1.48-.4c-.43-.14-.68-.31-.75-.5s.09-.4.5-.61A11.84,11.84,0,0,1,433.45,437.63Zm43.42-2.16a107.5,107.5,0,0,0-13.21.94q-6.45.85-13.29,2.3a22.72,22.72,0,0,1,9.51,7.53,27,27,0,0,1,4.39,12q3.45-6.12,6.41-11.56T476.87,435.47Z" transform="translate(-7.79 -9)"/><path class="cls-4" d="M488.46,490.63c-.58.33-1.07.6-1.47.79l-1.12.5c-.34.14-.7.29-1.08.43a12.25,12.25,0,0,1-1.44.43,6,6,0,0,1-1.44.4,3.82,3.82,0,0,0-.76.14,4.57,4.57,0,0,0-.86.47c-.36.24-.93.68-1.69,1.3a8.5,8.5,0,0,1-1.41,1.19,18,18,0,0,1-1.55,1,26.37,26.37,0,0,1-4,2.38,4.53,4.53,0,0,1-3.85.14,3.18,3.18,0,0,1-1.95-2.3,8.13,8.13,0,0,1,.29-3.6,18.82,18.82,0,0,1,1.84-4.29,47.92,47.92,0,0,1,2.66-4.07q1.47-2,3.17-3.92l3.42-3.85a5.78,5.78,0,0,1,1.94-1.62,5.59,5.59,0,0,1,2.05-.61,3.25,3.25,0,0,1,1.8.36,2.5,2.5,0,0,1,1.19,1.29,8.16,8.16,0,0,1,.44,4.61,19.93,19.93,0,0,1-.62,3.31c-.31,1.16-.63,2.43-1,3.82a1.55,1.55,0,0,0,.76.93,2.41,2.41,0,0,0,1.29.26,7.11,7.11,0,0,0,1.62-.29c.58-.17,1.18-.37,1.8-.61.82-.29,1.15-.23,1,.18A2.56,2.56,0,0,1,488.46,490.63Zm-15.19-3.32c-1.83,2.59-2.79,4.65-2.88,6.16s.24,2.32,1,2.41a3.67,3.67,0,0,0,2.66-.76,11.84,11.84,0,0,0,2.38-2.41,3.64,3.64,0,0,1-.87-1.11,15.66,15.66,0,0,1-.68-1.48,16.2,16.2,0,0,0-.72-1.51A8.3,8.3,0,0,0,473.27,487.31Zm6.91-7.27a20.92,20.92,0,0,0-2.16,3.42,4,4,0,0,0-.47,2.05,1.75,1.75,0,0,0,.69,1.23c.38.28.81.6,1.29.93a8.06,8.06,0,0,0,1.23-3.92A13.22,13.22,0,0,0,480.18,480Z" transform="translate(-7.79 -9)"/><path class="cls-4" d="M489.68,497.82c1.83-.81,3.53-1.58,5.12-2.3l4.64-2.09,4.57-2,4.9-2.16a2.06,2.06,0,0,0,.39-.11,2,2,0,0,1,.58-.11c.17,0,.25.06.25.18s-.19.36-.57.72a19.51,19.51,0,0,1-1.95,1.48c-.91.62-2.21,1.44-3.89,2.44l-2.48,1.45-1.87,1.08c-.6.33-1.24.69-1.91,1.08l-2.52,1.43a20.83,20.83,0,0,0-4.1,3.1,6.92,6.92,0,0,0-1.95,4.32,8.09,8.09,0,0,1-2,4.46,32.12,32.12,0,0,1-4,4,10.6,10.6,0,0,1-4.39,2.37,4.59,4.59,0,0,1-3.67-.29,2.41,2.41,0,0,1-1-2.66,8.25,8.25,0,0,1,2.05-4.1,32.14,32.14,0,0,1,2.7-3.06,26.57,26.57,0,0,1,3.13-2.7,9.21,9.21,0,0,0,3.1-3.14,8.08,8.08,0,0,0,.86-3.42c.1-1.67.27-3.39.51-5.14s.55-3.54.93-5.37a19.31,19.31,0,0,1,3.28-7.38,25.12,25.12,0,0,1,6.73-6.3,17.94,17.94,0,0,1,2.74-1.62q1.43-.67,2.88-1.26a10.2,10.2,0,0,1,1.51-.46,6.66,6.66,0,0,1,1.47-.19,2.85,2.85,0,0,1,1.23.26,1.4,1.4,0,0,1,.75.83,3.27,3.27,0,0,1,.26,1.51,5.12,5.12,0,0,1-.4,1.72,5.33,5.33,0,0,1-1.19,1.7,7.75,7.75,0,0,1-2.19,1.47,9.06,9.06,0,0,1-3.42.9,26.13,26.13,0,0,0-2.78.22,5.7,5.7,0,0,0-2.48,1,9.37,9.37,0,0,0-2.48,3.2,24.59,24.59,0,0,0-2.67,7.6A54.24,54.24,0,0,0,489.68,497.82ZM484,507.11a31,31,0,0,0-3.68,3,4.87,4.87,0,0,0-1.44,3.64,8.78,8.78,0,0,0,3.64-2.78A10.26,10.26,0,0,0,484,507.11Z" transform="translate(-7.79 -9)"/><path class="cls-4" d="M529.28,489.26c.58-.34.8-.39.65-.15a8.91,8.91,0,0,1-.86,1.12c-.44.5-.93,1-1.48,1.58l-1.26,1.26c-1.78,1.78-3.25,3.28-4.43,4.5s-2.3,2.39-3.38,3.49-2.22,2.26-3.42,3.46L510.63,509c-.57.58-1.17,1.16-1.8,1.73a17.92,17.92,0,0,1-1.9,1.55,7.42,7.42,0,0,1-2,1,3.4,3.4,0,0,1-2,0,2.08,2.08,0,0,1-1.22-.9,2.56,2.56,0,0,1-.33-1.44,9.06,9.06,0,0,1,.29-1.8c.17-.64.35-1.26.54-1.83q2-6.56,4.21-13.07t4.43-13.21A3,3,0,0,0,510,481a8.31,8.31,0,0,1-1.15-.08,1.28,1.28,0,0,1-.79-.32c-.17-.17-.06-.47.32-.9a17,17,0,0,0,1.48-1.69,7.37,7.37,0,0,1,1.47-1.48,28.11,28.11,0,0,0,5.19-4.89,42.58,42.58,0,0,0,3.81-5.62q7.86-14.12,16.64-28.08a48.19,48.19,0,0,1,4.28-5.76c1.61-1.87,3.2-3.72,4.79-5.54a9.63,9.63,0,0,1,1.73-1.62,23.34,23.34,0,0,1,1.94-1.33c1.68-.92,3-1.13,4-.65s1.23,1.49.75,3a20.7,20.7,0,0,1-1.4,3.53q-.9,1.8-2,3.6A134.22,134.22,0,0,1,541.49,447q-5.29,6.66-11,13.28-2.75,3.39-5.66,6.7t-5.58,6.77a22.39,22.39,0,0,0-2.44,3.74l-2,3.89a77,77,0,0,0-4.93,11.26c-1.27,3.73-2.37,7.43-3.28,11.13a8.12,8.12,0,0,0-.32,1.58,16.37,16.37,0,0,0-.11,1.8,6,6,0,0,0,.14,1.41c.1.36.29.46.58.32a82.87,82.87,0,0,0,6.73-5.8q2.7-2.62,5-5t4.76-4.47A50.16,50.16,0,0,1,529.28,489.26Zm-1.44-31a46.21,46.21,0,0,0,5.26-5.44q2.8-3.35,5.54-7t5.15-7.34q2.41-3.67,4-6.45a41.16,41.16,0,0,0,2.27-4.28c.43-1,.38-1.32-.14-.94a53.46,53.46,0,0,0-7.28,7.56,90.46,90.46,0,0,0-5.5,7.89q-2.49,4-4.68,8T527.84,458.3Z" transform="translate(-7.79 -9)"/><path class="cls-4" d="M529.28,499.62a5.08,5.08,0,0,0,1.84-1.11q1.18-1,2.55-2.31c.91-.88,1.84-1.81,2.78-2.77s1.77-1.81,2.52-2.55,1.32-1.29,1.72-1.62.57-.31.47.07a11.06,11.06,0,0,1-1.91,3.67,42.14,42.14,0,0,1-3.52,4.28,38.3,38.3,0,0,1-4,3.75,11.84,11.84,0,0,1-3.31,2.05,4.32,4.32,0,0,1-2.67.14,1.78,1.78,0,0,1-1.08-1.8c0-1.1,0-2.21,0-3.34a11.53,11.53,0,0,1,.61-3.42c1-2.83,1.93-5.37,2.92-7.6s1.91-4.62,2.77-7.16a3.74,3.74,0,0,1,1.33-1.77,3.17,3.17,0,0,1,1.77-.54c.24,0,.54,0,.9,0a3.56,3.56,0,0,1,1,.18,2,2,0,0,1,.68.36.46.46,0,0,1,.18.5,14.41,14.41,0,0,1-1.51,3c-.77,1.25-1.7,2.88-2.81,4.89a47.67,47.67,0,0,0-2.66,5.3,22.15,22.15,0,0,0-1.37,4.28,5.88,5.88,0,0,0-.18,1.22,11.79,11.79,0,0,0,0,1.19,1.47,1.47,0,0,0,.29.86A.55.55,0,0,0,529.28,499.62ZM541,472.41c.14.24,0,.57-.36,1a7.71,7.71,0,0,1-1.52,1.26,9.54,9.54,0,0,1-2.05,1,3,3,0,0,1-2,.1c-.19-.52-.42-1.08-.68-1.65a1.77,1.77,0,0,1,0-1.66,5.31,5.31,0,0,1,1.73-1.66,6,6,0,0,1,2.16-1,2.25,2.25,0,0,1,1.59.32A3.15,3.15,0,0,1,541,472.41Z" transform="translate(-7.79 -9)"/><path class="cls-4" d="M554.84,490.48c.67-.91,1.34-1.81,2-2.7s1.39-1.79,2.16-2.7a4.55,4.55,0,0,1,2.55-1.83,1.58,1.58,0,0,1,1.77,1.11,8.71,8.71,0,0,1,.5,2,5.15,5.15,0,0,0,.65,1.91,12.29,12.29,0,0,0,1,2.48,17.73,17.73,0,0,0,1.08,1.77c.33.48.6.86.79,1.15s.24.48.14.58a2.86,2.86,0,0,1-3.49.5q-2.06-.93-4.57-4.61c-.1-.19-.29-.18-.58,0a8.12,8.12,0,0,0-1,.9c-.39.38-.79.79-1.19,1.22a11,11,0,0,1-1,.94q-6.56,5.4-6.92-.58c0-.43-.07-.89-.07-1.37v-1.94c-.09-.14-.32,0-.68.47s-.86,1.1-1.48,1.94-1.35,1.78-2.19,2.81a39.81,39.81,0,0,1-2.7,3,23.13,23.13,0,0,1-3.1,2.59,9.21,9.21,0,0,1-3.38,1.51.8.8,0,0,1-.8-.22,1.23,1.23,0,0,1-.21-.75,3.77,3.77,0,0,1,.14-1c.1-.36.19-.68.29-1,1-2.64,1.95-5.27,3-7.88s2.12-5.25,3.27-7.89a1.67,1.67,0,0,1,.44-.68,4.51,4.51,0,0,1,.79-.72,6.31,6.31,0,0,1,.93-.58,1.37,1.37,0,0,1,.87-.18A2.12,2.12,0,0,1,545,481a1.55,1.55,0,0,1,.58.62,1.66,1.66,0,0,1,.18.75,2.68,2.68,0,0,1-.07.68,11.62,11.62,0,0,1-1.05,1.95c-.31.43-.62.9-.93,1.4s-.69,1.15-1.12,1.95a35.14,35.14,0,0,0-1.58,3.49,7.76,7.76,0,0,0-.36.86,8.8,8.8,0,0,0-.33,1.05,1.09,1.09,0,0,0,0,.68c.08.14.3.05.69-.29a11.82,11.82,0,0,0,1.44-1.62c.57-.74,1.08-1.45,1.51-2.12.67-1,1.31-1.91,1.91-2.85s1.26-1.88,2-2.84a4.74,4.74,0,0,1,2.88-2.23c1-.15,1.63.34,2,1.44a11.11,11.11,0,0,1,.22,1.4,13.86,13.86,0,0,0,.22,1.48c.09.62.18,1.24.25,1.84s.15,1.21.25,1.83.18.76.39.69A1.89,1.89,0,0,0,554.84,490.48Z" transform="translate(-7.79 -9)"/><path class="cls-4" d="M456.35,553.7a4.49,4.49,0,0,1-1.8,1.08,1.63,1.63,0,0,1-1.15-.11,1.37,1.37,0,0,1-.65-1.41,5.09,5.09,0,0,1,.72-1.47c.38-.6.79-1.23,1.22-1.87s.87-1.27,1.3-1.88a5.87,5.87,0,0,0,.86-1.54,39.86,39.86,0,0,0,2.59-7.89,22.16,22.16,0,0,0,.36-7.31c-.28-2.3-1.11-3.45-2.48-3.45s-3.2,1.18-5.51,3.53c-1.58,1.58-3.12,3.24-4.61,5s-2.85,3.49-4.1,5.26a166.46,166.46,0,0,0-11.92,18.72,156.5,156.5,0,0,0-8.74,19c-.63,1.68-1.19,3.32-1.7,4.93a30.24,30.24,0,0,0-1.08,4.75,18.73,18.73,0,0,0-.1,4.47,10.53,10.53,0,0,0,1.22,4q.29.43.54.87c.17.29.32.55.47.79q2.08,2.65,4.71,2.45c1.76-.15,4.05-1.25,6.88-3.32a.77.77,0,0,1,.29-.18.68.68,0,0,0,.29-.17,146.61,146.61,0,0,0,12.63-12q5.87-6.26,11.49-13.24c-.82-.29-1.56-.54-2.24-.76a7.84,7.84,0,0,1-1.8-.83c-.24-.14-.5-.31-.79-.5s-.55-.39-.79-.58a3,3,0,0,1-.58-.61.49.49,0,0,1-.07-.54,9.52,9.52,0,0,1,1.66-2,12.29,12.29,0,0,1,2.3-1.77,114.25,114.25,0,0,1,10.3-5.4,16.92,16.92,0,0,0,3.53-2,12.08,12.08,0,0,0,2.66-3q5.4-7.92,10.84-15.69t10.76-15.7a48.05,48.05,0,0,0,2.95-5q1.31-2.52,2.52-5,3.17-6.69,6.16-13.25t6.15-13.24c.19-.39.38-.78.54-1.19a5.56,5.56,0,0,1,.69-1.19c.38-.38.83-.8,1.33-1.26a2.13,2.13,0,0,1,1.26-.68,2.4,2.4,0,0,1,1.4.29,1.46,1.46,0,0,1,.83.93,5.61,5.61,0,0,1-.07,2,8,8,0,0,1-.72,2.13c-.72,1.53-1.48,3.06-2.27,4.57s-1.67,3-2.63,4.5a126.59,126.59,0,0,0-13,26.35q-2.09,5.91-4.25,11.77t-4.24,11.77a18.74,18.74,0,0,0-.8,2.59,22.74,22.74,0,0,1-.79,2.74L501,550.78q6-.62,11.81-.86t11.34,0a67.83,67.83,0,0,1,10.73,1.33,2.7,2.7,0,0,1,.68.21,5.87,5.87,0,0,1,.91.47c.23.17.33.32.28.44s-.43.17-1.15.17q-6.2,0-12-.17t-11.7.17q-5.9.44-11.88,1.05a71.12,71.12,0,0,0-12.6,2.55q-1,3.11-2,6c-.64,1.92-1.26,3.82-1.83,5.69q-5,16.49-10.08,32.69t-10,32.68c-.67,2.12-1.32,4.19-1.95,6.23a25.66,25.66,0,0,0-1.08,6.3,14.69,14.69,0,0,1-.79,4.29,13.17,13.17,0,0,1-1.44,2.63q-1.8,2.73-4,2.44a1.54,1.54,0,0,1-1-.54,2.51,2.51,0,0,1-.25-1.83,3.93,3.93,0,0,1,.28-.94,9.64,9.64,0,0,0,.36-.93q5.47-17.07,10.91-34T475.5,583q1.8-5.54,3.46-11T482.34,561c.15-.62.28-1.27.4-1.94s.3-1.49.54-2.45c-2.07.67-4,1.27-5.87,1.8a54.53,54.53,0,0,0-5.44,1.87,6.1,6.1,0,0,0-2,1.4c-.69.7-1.31,1.36-1.83,2Q463,569.89,458,576.09T447.56,588.4a68.44,68.44,0,0,1-5.76,5.94c-2.06,1.9-4.2,3.73-6.4,5.51q-5.34,4.39-9.83,4.75a7.86,7.86,0,0,1-7.24-3.17,13.82,13.82,0,0,1-2.48-5.72,15.07,15.07,0,0,1,.61-7.24c1-3.17,2.08-6.34,3.2-9.54s2.42-6.39,3.86-9.61a149.17,149.17,0,0,1,9.28-17.71,153.13,153.13,0,0,1,12.32-17.21q1.44-1.8,3.13-3.56a44.53,44.53,0,0,1,3.49-3.28,16.67,16.67,0,0,1,3.85-2.45,8,8,0,0,1,3.39-.75,4.5,4.5,0,0,1,2.66.86,4.69,4.69,0,0,1,1.62,2.49,16.46,16.46,0,0,1,.54,7,36.35,36.35,0,0,1-1.91,7.77c-.29.87-.6,1.8-.93,2.81s-.72,2-1.16,3a21.69,21.69,0,0,1-1.51,2.91A13.14,13.14,0,0,1,456.35,553.7Zm8.06,10.65c.43-.67.52-1,.25-1a5.58,5.58,0,0,0-1,.25,9.47,9.47,0,0,0-1.55.65c-.79.39-1.62.82-2.48,1.3a21.42,21.42,0,0,0-2.23,1.4q-.94.69-.72.9a13.27,13.27,0,0,1,1.44.58,3.12,3.12,0,0,0,.86.29l1.26.17a1,1,0,0,0,1-.25c.39-.48.72-.91,1-1.29l.87-1.16q.36-.42.72-.93A6.74,6.74,0,0,0,464.41,564.35ZM484.28,553c.63-1.3,1.26-2.73,1.91-4.29s1.29-3.15,1.91-4.78,1.19-3.26,1.69-4.87.95-3.08,1.33-4.42.68-2.51.87-3.49a8,8,0,0,0,.21-2.13q-4.6,6.76-9.18,13.54t-9.39,13.82q2.88-.93,5.43-1.73C480.77,554.11,482.51,553.55,484.28,553Z" transform="translate(-7.79 -9)"/><path class="cls-4" d="M503.58,562.77a4.29,4.29,0,0,1,2.84.29,4.4,4.4,0,0,1,1.55,1.51,8.3,8.3,0,0,1,.9,1.94,4.61,4.61,0,0,0,.9,1.66,5.67,5.67,0,0,0,3.6,2.05,12.59,12.59,0,0,0,5.11-.47,15.84,15.84,0,0,0,2.09-.86c.91-.43,1.78-.82,2.6-1.15a8.83,8.83,0,0,1,1.9-.61c.46-.08.49.17.11.75q-5.11,4.75-10.26,5.29a16.65,16.65,0,0,1-10-2.19c-.1-.29-.32-.22-.65.21a15.72,15.72,0,0,0-1.15,1.77c-.44.74-.87,1.56-1.3,2.45l-1.08,2.19c-.53,1.06-1.06,2.12-1.58,3.2a23.41,23.41,0,0,1-1.87,3.14,19.21,19.21,0,0,1-2.53,2.84,16.58,16.58,0,0,1-3.45,2.41c-.43.15-.71.12-.83-.07a1,1,0,0,1-.07-.75,6.84,6.84,0,0,1,.32-1c.15-.36.27-.64.36-.83a47,47,0,0,1,2.67-6.16q1.57-3.06,3.38-6.3a31.51,31.51,0,0,0,1.37-3c.48-1.2,1-2.39,1.51-3.57a21.11,21.11,0,0,1,1.69-3.09A3.67,3.67,0,0,1,503.58,562.77Z" transform="translate(-7.79 -9)"/><path class="cls-4" d="M527.63,586a5.06,5.06,0,0,0,1.83-1.11c.8-.65,1.65-1.42,2.56-2.31s1.84-1.81,2.77-2.77l2.52-2.55c.75-.75,1.32-1.29,1.73-1.62s.56-.32.47.07a11.25,11.25,0,0,1-1.91,3.67,42.28,42.28,0,0,1-3.53,4.28,38.24,38.24,0,0,1-4,3.75,11.86,11.86,0,0,1-3.32,2.05,4.3,4.3,0,0,1-2.66.15,1.79,1.79,0,0,1-1.08-1.8c0-1.11,0-2.22,0-3.35a11.22,11.22,0,0,1,.61-3.42c1-2.83,1.93-5.37,2.91-7.6s1.91-4.62,2.78-7.16a3.68,3.68,0,0,1,1.33-1.77,3.17,3.17,0,0,1,1.76-.54c.24,0,.54,0,.9,0a3.49,3.49,0,0,1,1,.18,2,2,0,0,1,.69.36.46.46,0,0,1,.18.5,14.92,14.92,0,0,1-1.51,3q-1.15,1.88-2.81,4.89a47.88,47.88,0,0,0-2.67,5.3,22.05,22.05,0,0,0-1.36,4.28,5.88,5.88,0,0,0-.18,1.22,7.86,7.86,0,0,0,0,1.19,1.54,1.54,0,0,0,.28.86A.56.56,0,0,0,527.63,586Zm11.66-27.21c.15.24,0,.57-.36,1a7.62,7.62,0,0,1-1.51,1.26,9.51,9.51,0,0,1-2,1,3,3,0,0,1-2,.11c-.19-.52-.42-1.08-.69-1.65a1.77,1.77,0,0,1,0-1.66,5.21,5.21,0,0,1,1.73-1.66,5.88,5.88,0,0,1,2.16-1,2.23,2.23,0,0,1,1.58.32A3.08,3.08,0,0,1,539.29,558.81Z" transform="translate(-7.79 -9)"/><path class="cls-4" d="M545.05,574.94a17.31,17.31,0,0,0,4.83,1,24.89,24.89,0,0,0,6-.4c.86-.19,1.19-.13,1,.18a5.87,5.87,0,0,1-1.51,1.26,31.22,31.22,0,0,1-2.91,1.69,27,27,0,0,1-3.1,1.41,14,14,0,0,1-2.3.58c-.87.14-1.64.26-2.31.35a15.67,15.67,0,0,0-1.58.26c-.58.12-.89.3-.94.54a13.48,13.48,0,0,1-.68,2.55c-.27.65-.64,1.46-1.12,2.42l-1.91,3.81c-.84,1.68-1.74,3.45-2.7,5.29L533,601.11c-.87,1.65-1.54,2.91-2,3.78-1.39,2.49-2.73,5-4,7.41s-2.59,4.92-3.89,7.42c-.53,1.06-1,2.1-1.55,3.13a31.77,31.77,0,0,1-1.69,3.06c-.14.19-.33.47-.57.83a8.88,8.88,0,0,1-.83,1,4.61,4.61,0,0,1-1,.79,1,1,0,0,1-.94.07c-.19-.1-.33-.51-.4-1.23a5,5,0,0,1,0-1.65,6.7,6.7,0,0,1,.54-1.62c.26-.55.54-1.12.83-1.69q2.73-6.12,5.5-12.24T528.49,598c.29-.63.68-1.54,1.19-2.74s1-2.45,1.62-3.74,1.14-2.55,1.69-3.75,1-2.08,1.33-2.66l1.77-3.06a9.16,9.16,0,0,0,.75-1.48,1.38,1.38,0,0,0-.1-.43c-.08-.19-.38-.29-.91-.29a1.9,1.9,0,0,1-1.47-.5c-.31-.34,0-1.1.83-2.31a7.81,7.81,0,0,1,1.29-1.54,2.93,2.93,0,0,1,1.23-.47,1.51,1.51,0,0,1,.5-.07h.43a1.88,1.88,0,0,0,.65-.11,1.63,1.63,0,0,0,.65-.58,13.62,13.62,0,0,0,.9-1.37c.36-.59.83-1.4,1.4-2.41q2.52-4.61,4.65-8.35c1.41-2.49,2.81-4.93,4.17-7.31s2.77-4.81,4.22-7.31,3-5.27,4.82-8.35q3.67-6.25,7.56-12.35t7.78-12.27a2.57,2.57,0,0,1,.57-.94,27.06,27.06,0,0,0,2.09-1.83,4,4,0,0,1,1.87-1.19,1.28,1.28,0,0,1,1.77.72,2.57,2.57,0,0,1,.14,1c0,.41-.06.81-.11,1.19-.19,1.11-.41,2.21-.65,3.31a14.81,14.81,0,0,1-1.15,3.31,204.92,204.92,0,0,1-10,21.14,130.27,130.27,0,0,1-14.08,20.55c-.72.82-1.55,1.69-2.48,2.63l-2.81,2.81c-.94.94-1.83,1.81-2.66,2.63s-1.51,1.48-2,2c-.1.15-.26.35-.47.61a4.21,4.21,0,0,0-.54.83,2.21,2.21,0,0,0-.25.87A.75.75,0,0,0,545.05,574.94Zm4.75-10.8c-.38.62-.54.93-.47.93s.3-.21.69-.65.86-1,1.44-1.76,1.19-1.51,1.83-2.3,1.28-1.59,1.88-2.38,1.09-1.43,1.47-1.91c1.83-2.44,3.64-5,5.44-7.74s3.5-5.41,5.11-8.1,3.06-5.31,4.36-7.88,2.37-4.91,3.24-7c.24-.58.52-1.29.86-2.12s.67-1.68,1-2.53.62-1.63.86-2.37a13.51,13.51,0,0,0,.47-1.73c.07-.41,0-.58-.14-.5a4.62,4.62,0,0,0-1.05,1.26q-4.24,5.82-7.77,11.73t-6.74,11.77q-3.19,5.88-6.22,11.7T549.8,564.14Z" transform="translate(-7.79 -9)"/></g></svg>